<svg width="49" height="65" viewBox="0 0 49 65" fill="none" xmlns="http://www.w3.org/2000/svg">
<g id="Group 34">
<path id="Vector" d="M9.46268 0.686892L10.776 4.6628C10.9107 5.07177 11.2987 5.3497 11.7365 5.3497H15.987C16.9665 5.3497 17.3735 6.58236 16.5814 7.14829L13.1421 9.60641C12.7878 9.85986 12.6399 10.3077 12.7746 10.7181L14.088 14.694C14.3911 15.6099 13.3251 16.3717 12.533 15.8057L9.09371 13.3476C8.73939 13.0942 8.26061 13.0942 7.90628 13.3476L4.46697 15.8057C3.67486 16.3717 2.60895 15.6099 2.91203 14.694L4.22538 10.7181C4.36009 10.3091 4.2122 9.85986 3.85788 9.60641L0.418565 7.14829C-0.373546 6.58236 0.0334904 5.3497 1.01301 5.3497H5.26347C5.70126 5.3497 6.08926 5.07177 6.22396 4.6628L7.53731 0.686892C7.84186 -0.228964 9.1596 -0.228964 9.46268 0.686892Z" fill="white"/>
<g id="Group">
<path id="Vector_2" d="M37.1356 37.2015L35.3378 30.1362C35.048 28.9992 33.4347 28.9992 33.1449 30.1362L31.3471 37.2015C31.2458 37.5968 30.9418 37.9069 30.5486 38.0143L22.7272 40.1525C21.5943 40.4626 21.6267 42.08 22.7698 42.3455L29.973 44.0176C30.3803 44.1128 30.7046 44.425 30.81 44.8303L33.1449 53.6751C33.4408 54.798 35.0358 54.798 35.3318 53.6751L37.6666 44.8303C37.774 44.425 38.0963 44.1128 38.5037 44.0176L45.7068 42.3455C46.8499 42.08 46.8823 40.4626 45.7494 40.1525L37.928 38.0143C37.5409 37.9048 37.2369 37.5947 37.1356 37.2015Z" fill="white"/>
<path id="Vector_3" d="M45.2204 29.5404L44.5009 26.7131C44.3854 26.2591 43.7389 26.2591 43.6233 26.7131L42.9038 29.5404C42.8633 29.6985 42.7417 29.8221 42.5856 29.8647L39.4563 30.72C39.0023 30.8436 39.0165 31.4902 39.4725 31.5976L42.3546 32.2664C42.5187 32.3049 42.6464 32.4286 42.689 32.5927L43.6233 36.1315C43.7429 36.5814 44.3793 36.5814 44.4989 36.1315L45.4332 32.5927C45.4758 32.4306 45.6055 32.3049 45.7677 32.2664L48.6497 31.5976C49.1078 31.4922 49.1199 30.8436 48.666 30.72L45.5366 29.8647C45.3826 29.8221 45.261 29.6985 45.2204 29.5404Z" fill="white"/>
<path id="Vector_4" d="M19.7102 57.3984L18.9907 54.5711C18.8751 54.1171 18.2286 54.1171 18.1131 54.5711L17.3936 57.3984C17.353 57.5565 17.2314 57.6802 17.0754 57.7227L13.946 58.578C13.492 58.7016 13.5062 59.3482 13.9622 59.4556L16.8443 60.1244C17.0085 60.163 17.1362 60.2866 17.1787 60.4508L18.1131 63.9895C18.2327 64.4394 18.8691 64.4394 18.9887 63.9895L19.923 60.4508C19.9656 60.2886 20.0953 60.163 20.2574 60.1244L23.1395 59.4556C23.5975 59.3502 23.6097 58.7016 23.1557 58.578L20.0264 57.7227C19.8723 57.6802 19.7507 57.5565 19.7102 57.3984Z" fill="white"/>
<path id="Vector_5" d="M15.1926 28.0345L14.4731 25.2072C14.3576 24.7532 13.711 24.7532 13.5955 25.2072L12.876 28.0345C12.8355 28.1926 12.7139 28.3163 12.5578 28.3588L9.42847 29.2141C8.97447 29.3378 8.98865 29.9843 9.44467 30.0917L12.3267 30.7606C12.4909 30.7991 12.6186 30.9227 12.6612 31.0869L13.5955 34.6256C13.7151 35.0756 14.3515 35.0756 14.4711 34.6256L15.4054 31.0869C15.448 30.9247 15.5777 30.7991 15.7398 30.7606L18.6219 30.0917C19.08 29.9863 19.0921 29.3378 18.6381 29.2141L15.5088 28.3588C15.3547 28.3163 15.2331 28.1926 15.1926 28.0345Z" fill="white"/>
</g>
</g>
</svg>
