<svg width="40" height="60" viewBox="0 0 40 60" fill="none" xmlns="http://www.w3.org/2000/svg">
<g id="Group 35">
<path id="Vector" d="M31.0939 0.686892L29.8579 4.6628C29.7311 5.07177 29.3659 5.3497 28.9539 5.3497H24.9534C24.0315 5.3497 23.6484 6.58236 24.3939 7.14829L27.6309 9.60641C27.9644 9.85986 28.1036 10.3077 27.9768 10.7181L26.7407 14.694C26.4555 15.6099 27.4587 16.3717 28.2042 15.8057L31.4412 13.3476C31.7747 13.0942 32.2253 13.0942 32.5588 13.3476L35.7958 15.8057C36.5413 16.3717 37.5445 15.6099 37.2593 14.694L36.0232 10.7181C35.8964 10.3091 36.0356 9.85986 36.3691 9.60641L39.6061 7.14829C40.3516 6.58236 39.9685 5.3497 39.0466 5.3497H35.0461C34.6341 5.3497 34.2689 5.07177 34.1422 4.6628L32.9061 0.686892C32.6194 -0.228964 31.3792 -0.228964 31.0939 0.686892Z" fill="white"/>
<g id="Group">
<path id="Vector_2" d="M11.8642 32.3323L13.6619 25.2669C13.9517 24.1299 15.5651 24.1299 15.8549 25.2669L17.6526 32.3323C17.754 32.7275 18.058 33.0376 18.4512 33.145L26.2725 35.2833C27.4055 35.5934 27.373 37.2107 26.2299 37.4762L19.0268 39.1483C18.6194 39.2436 18.2951 39.5557 18.1897 39.9611L15.8549 48.8059C15.559 49.9287 13.9639 49.9287 13.668 48.8059L11.3332 39.9611C11.2257 39.5557 10.9035 39.2436 10.4961 39.1483L3.29295 37.4762C2.14985 37.2107 2.11742 35.5934 3.25038 35.2833L11.0717 33.145C11.4588 33.0356 11.7628 32.7255 11.8642 32.3323Z" fill="white"/>
<path id="Vector_3" d="M3.77944 24.6711L4.49895 21.8438C4.61448 21.3898 5.26101 21.3898 5.37654 21.8438L6.09604 24.6711C6.13657 24.8292 6.25818 24.9529 6.41424 24.9954L9.54358 25.8507C9.99758 25.9744 9.9834 26.6209 9.52738 26.7283L6.6453 27.3972C6.48113 27.4357 6.35345 27.5593 6.31089 27.7235L5.37654 31.2622C5.25696 31.7122 4.62055 31.7122 4.50097 31.2622L3.56663 27.7235C3.52407 27.5613 3.39436 27.4357 3.23222 27.3972L0.350142 26.7283C-0.107907 26.6229 -0.120071 25.9744 0.333925 25.8507L3.46326 24.9954C3.6173 24.9529 3.7389 24.8292 3.77944 24.6711Z" fill="white"/>
<path id="Vector_4" d="M29.2898 52.5292L30.0093 49.7018C30.1249 49.2478 30.7714 49.2478 30.8869 49.7018L31.6064 52.5292C31.647 52.6873 31.7686 52.8109 31.9246 52.8535L35.054 53.7088C35.508 53.8324 35.4938 54.4789 35.0378 54.5863L32.1557 55.2552C31.9915 55.2937 31.8638 55.4173 31.8213 55.5815L30.8869 59.1202C30.7673 59.5702 30.1309 59.5702 30.0113 59.1202L29.077 55.5815C29.0344 55.4194 28.9047 55.2937 28.7426 55.2552L25.8605 54.5863C25.4025 54.481 25.3903 53.8324 25.8443 53.7088L28.9736 52.8535C29.1277 52.8109 29.2493 52.6873 29.2898 52.5292Z" fill="white"/>
<path id="Vector_5" d="M33.8073 23.1653L34.5268 20.3379C34.6423 19.8839 35.2888 19.8839 35.4044 20.3379L36.1239 23.1653C36.1644 23.3234 36.286 23.447 36.4421 23.4896L39.5714 24.3449C40.0254 24.4685 40.0112 25.115 39.5552 25.2225L36.6731 25.8913C36.509 25.9298 36.3813 26.0534 36.3387 26.2176L35.4044 29.7563C35.2848 30.2063 34.6484 30.2063 34.5288 29.7563L33.5945 26.2176C33.5519 26.0555 33.4222 25.9298 33.2601 25.8913L30.378 25.2225C29.9199 25.1171 29.9078 24.4685 30.3618 24.3449L33.4911 23.4896C33.6451 23.447 33.7667 23.3234 33.8073 23.1653Z" fill="white"/>
</g>
</g>
</svg>
